<?xml version="1.0" encoding="utf-8"?>
<!-- Generator: Adobe Illustrator 23.0.0, SVG Export Plug-In . SVG Version: 6.00 Build 0)  -->
<svg version="1.1" id="OBJECTS" xmlns="http://www.w3.org/2000/svg" xmlns:xlink="http://www.w3.org/1999/xlink" x="0px" y="0px"
	 viewBox="0 0 354.91 178.32" style="enable-background:new 0 0 354.91 178.32;" xml:space="preserve">
<style type="text/css">
	.st0{opacity:0.4;}
	.st1{clip-path:url(#XMLID_2_);fill:#FFFFFF;}
	.st2{clip-path:url(#XMLID_3_);fill:#FFFFFF;}
	.st3{fill:#BEFBFE;}
	.st4{fill:#FD7EC3;stroke:#2B2C4C;stroke-linecap:round;stroke-linejoin:round;stroke-miterlimit:10;}
	.st5{fill:#4BAAFD;stroke:#2B2C4C;stroke-linecap:round;stroke-linejoin:round;stroke-miterlimit:10;}
	.st6{fill:#4BF4FD;stroke:#2B2C4C;stroke-linecap:round;stroke-linejoin:round;stroke-miterlimit:10;}
	.st7{fill:none;stroke:#2B2C4C;stroke-linecap:round;stroke-linejoin:round;stroke-miterlimit:10;}
	.st8{fill:#4BF4FD;stroke:#322B4C;stroke-linecap:round;stroke-linejoin:round;stroke-miterlimit:10;}
	.st9{display:none;}
	.st10{display:inline;}
	.st11{fill:none;stroke:#20154C;stroke-miterlimit:10;}
</style>
<g>
	<g>
		<g class="st0">
			<g>
				<defs>
					<path id="XMLID_70_" d="M106.97,103.44C84.81,34.8,60.37,17.88,49.12,15.25c-4.63-1.08-9.25,2.58-9.94,8.84
						c-3.33,30.52,45.38,79.61,45.38,79.61L106.97,103.44z"/>
				</defs>
				<use xlink:href="#XMLID_70_"  style="overflow:visible;fill:#FD7EC3;"/>
				<clipPath id="XMLID_2_">
					<use xlink:href="#XMLID_70_"  style="overflow:visible;"/>
				</clipPath>
				<path class="st1" d="M55.31,36.12c0,0,0.91,0.98,2.43,2.75c1.52,1.77,3.66,4.33,6.13,7.48c1.23,1.58,2.56,3.29,3.92,5.13
					c1.36,1.84,2.81,3.78,4.23,5.84c1.43,2.05,2.93,4.16,4.36,6.37c1.45,2.2,2.89,4.45,4.31,6.71c1.39,2.28,2.75,4.59,4.06,6.87
					c1.32,2.28,2.51,4.59,3.66,6.82c1.15,2.23,2.18,4.44,3.1,6.56c0.46,1.06,0.91,2.09,1.3,3.1c0.4,1.01,0.77,2,1.09,2.95
					c0.34,0.95,0.65,1.87,0.9,2.76c0.27,0.88,0.49,1.72,0.67,2.53c0.2,0.8,0.38,1.54,0.47,2.25c0.11,0.71,0.25,1.34,0.28,1.93
					c0.05,0.59,0.09,1.11,0.13,1.57c0.01,0.46-0.01,0.85-0.02,1.16c-0.02,0.63-0.02,0.96-0.02,0.96s-0.05-0.33-0.14-0.95
					c-0.05-0.31-0.09-0.69-0.18-1.13c-0.1-0.44-0.22-0.94-0.36-1.5c-0.11-0.56-0.34-1.17-0.54-1.83c-0.2-0.66-0.44-1.38-0.73-2.13
					c-0.27-0.76-0.58-1.55-0.94-2.38c-0.34-0.83-0.7-1.71-1.13-2.6c-0.4-0.9-0.84-1.83-1.33-2.78c-0.46-0.96-0.95-1.95-1.48-2.95
					c-1.03-2.02-2.21-4.11-3.4-6.27c-1.2-2.17-2.53-4.36-3.83-6.61c-1.32-2.24-2.7-4.5-4.11-6.75c-1.38-2.26-2.78-4.51-4.19-6.71
					c-1.4-2.2-2.78-4.37-4.12-6.47c-2.7-4.19-5.21-8.1-7.37-11.45C58.13,40.65,55.31,36.12,55.31,36.12z"/>
			</g>
			<g>
				<defs>
					<path id="XMLID_71_" d="M84.47,102.53c-22.17-43.67-46.6-54.43-57.85-56.1c-4.63-0.69-9.25,1.64-9.94,5.63
						c-3.33,19.42,45.38,50.65,45.38,50.65L84.47,102.53z"/>
				</defs>
				<use xlink:href="#XMLID_71_"  style="overflow:visible;fill:#4BF4FD;"/>
				<clipPath id="XMLID_3_">
					<use xlink:href="#XMLID_71_"  style="overflow:visible;"/>
				</clipPath>
				<path class="st2" d="M40.39,66.79c0,0,1.05,0.82,2.84,2.32c1.79,1.5,4.31,3.69,7.25,6.4c1.47,1.36,3.06,2.83,4.7,4.44
					c1.64,1.6,3.38,3.28,5.12,5.08c1.74,1.79,3.56,3.64,5.33,5.58c1.78,1.93,3.56,3.92,5.33,5.93c1.74,2.03,3.45,4.08,5.11,6.13
					c1.67,2.04,3.22,4.12,4.71,6.14c1.49,2.02,2.87,4.03,4.11,5.97c0.63,0.97,1.24,1.91,1.78,2.86c0.56,0.93,1.08,1.85,1.55,2.74
					c0.49,0.88,0.94,1.74,1.33,2.58c0.41,0.82,0.76,1.62,1.07,2.39c0.32,0.75,0.62,1.46,0.83,2.15c0.22,0.68,0.46,1.28,0.59,1.86
					c0.14,0.57,0.27,1.08,0.38,1.53c0.09,0.45,0.12,0.84,0.17,1.15c0.08,0.62,0.13,0.95,0.13,0.95s-0.1-0.32-0.29-0.92
					c-0.1-0.3-0.2-0.67-0.36-1.09c-0.17-0.41-0.37-0.89-0.6-1.43c-0.2-0.54-0.52-1.1-0.82-1.72c-0.3-0.62-0.66-1.29-1.06-1.98
					c-0.38-0.7-0.82-1.44-1.31-2.19c-0.47-0.77-0.97-1.57-1.53-2.38c-0.54-0.83-1.13-1.67-1.76-2.53c-0.61-0.87-1.25-1.77-1.94-2.67
					c-1.34-1.83-2.84-3.7-4.37-5.65c-1.53-1.95-3.2-3.89-4.85-5.91c-1.67-2-3.39-4.01-5.14-6c-1.73-2.01-3.47-4.01-5.21-5.95
					c-1.74-1.95-3.45-3.87-5.1-5.72c-3.33-3.7-6.45-7.16-9.11-10.12C43.91,70.81,40.39,66.79,40.39,66.79z"/>
			</g>
		</g>
		<g>
			<ellipse class="st3" cx="192.58" cy="123.23" rx="162.33" ry="41.49"/>
			<g>
				<polygon class="st4" points="222.96,35.37 223.08,49.33 248.12,57.22 248.1,26.18 				"/>
				<polygon class="st5" points="223.08,49.33 223.08,32.12 190.58,46.53 196.08,64.03 				"/>
				<polygon class="st5" points="248.16,55.5 248.21,87.43 223.58,99.02 188.75,91.18 190.58,80.12 				"/>
				<polygon class="st6" points="113.75,95.52 112.25,111.47 178.92,138.34 247.99,105.29 248.12,87.8 209,74.07 248.16,55.49 
					222.92,48.91 167.13,74.14 150.13,68.47 132.63,75.51 150.92,81.8 				"/>
				<polygon class="st5" points="178.92,95.1 198.75,88.35 198.75,46.39 179.08,55.84 				"/>
				<polygon class="st6" points="97.33,27.29 166.33,0 248.08,26.14 179.08,55.84 				"/>
				<polygon class="st6" points="97.33,27.29 97.33,106.02 178.95,138.27 179.12,55.68 				"/>
				<polygon class="st7" points="97.33,85.13 136.33,99.61 136.33,121.87 97.33,106.02 				"/>
				<polygon class="st5" points="150.96,6.19 167.96,11.86 183.46,5.67 166.33,0 				"/>
				<polygon class="st5" points="206.25,12.95 225.92,18.96 211.42,25.54 191.92,19.24 				"/>
				<polygon class="st5" points="97.33,27.29 97.33,46.12 116.83,53.32 116.83,34.11 152.33,19.31 133.46,13.23 				"/>
				<line class="st5" x1="198.83" y1="109.79" x2="247.95" y2="87.38"/>
				<line class="st7" x1="97.33" y1="27.29" x2="116.83" y2="34.11"/>
				<polygon class="st4" points="97.33,85.13 97.25,46.12 137.58,60.53 137.58,41.92 156.46,33.69 179.08,41.04 161.42,49.33 
					161.42,88.94 178.92,95.1 198.79,87.02 198.87,109.7 179.04,118.23 159.58,111.05 159.58,130.79 136.33,121.87 136.58,100.56 
									"/>
				<line class="st7" x1="210.23" y1="74.5" x2="198.66" y2="70.25"/>
			</g>
		</g>
	</g>
	<g>
		<g>
			<polygon class="st6" points="212.96,151.5 212.96,170.32 232.46,177.53 232.37,158.23 269.5,143.6 249.08,137.43 			"/>
			<line class="st5" x1="232.46" y1="158.32" x2="212.96" y2="151.5"/>
		</g>
		<g>
			<polygon class="st4" points="248.33,151.96 248.33,170.78 267.83,177.99 267.83,158.78 303.79,143.93 284.46,137.89 			"/>
			<polygon class="st6" points="267.83,177.99 303.79,162.48 304.04,143.98 267.83,158.78 			"/>
			<line class="st5" x1="248.33" y1="151.96" x2="267.83" y2="158.78"/>
		</g>
		<polygon class="st5" points="232.5,177.58 248.19,170.66 248.19,152.1 232.44,158.41 		"/>
		<g>
			<polygon class="st8" points="283.67,152.29 283.67,171.12 303.17,178.32 303.17,159.11 323.91,150.23 303.58,143.89 			"/>
			<polygon class="st5" points="303.17,178.32 323.83,169.06 323.91,150.23 303.17,159.11 			"/>
			<line class="st5" x1="283.67" y1="152.29" x2="303.17" y2="159.11"/>
		</g>
	</g>
	<g>
		<polygon class="st6" points="276.67,80.96 276.67,99.78 296.17,106.99 296.17,87.78 316.21,78.81 297.66,72.89 		"/>
		<polygon class="st4" points="296.17,106.99 316.16,97.81 316.19,78.89 296.17,87.78 		"/>
		<line class="st5" x1="276.67" y1="80.96" x2="296.17" y2="87.78"/>
	</g>
	<g>
		<g>
			<g>
				<polygon class="st4" points="19.5,170.32 55.46,154.81 55.71,136.31 19.5,151.11 				"/>
				<line class="st5" x1="0" y1="144.29" x2="19.5" y2="151.11"/>
			</g>
			<g>
				<polygon class="st6" points="69.25,130.39 54.76,135.94 36.13,130.23 0,144.29 0,163.12 19.5,170.32 19.5,151.11 34.5,145.18 
					34.54,163.73 53.75,170.82 53.75,151.61 89.96,136.73 				"/>
				<polygon class="st4" points="53.75,170.82 89.71,155.31 89.96,136.81 53.75,151.61 				"/>
			</g>
			<polygon class="st4" points="34.64,145.25 34.46,145.31 34.46,163.62 53.75,170.73 53.75,151.61 			"/>
		</g>
		<line class="st6" x1="0.21" y1="144.37" x2="19.46" y2="151.18"/>
	</g>
	<g class="st9">
		<g class="st10">
			<line class="st11" x1="249.87" y1="-48.2" x2="249.87" y2="-51.73"/>
			<line class="st11" x1="246.88" y1="-47.42" x2="245.11" y2="-50.47"/>
			<line class="st11" x1="244.68" y1="-45.24" x2="241.62" y2="-47"/>
			<line class="st11" x1="243.87" y1="-42.26" x2="240.34" y2="-42.26"/>
			<line class="st11" x1="244.65" y1="-39.27" x2="241.6" y2="-37.5"/>
			<line class="st11" x1="246.83" y1="-37.07" x2="245.06" y2="-34.02"/>
			<line class="st11" x1="249.81" y1="-36.26" x2="249.81" y2="-32.73"/>
			<line class="st11" x1="252.8" y1="-37.04" x2="254.56" y2="-33.99"/>
			<line class="st11" x1="255" y1="-39.22" x2="258.05" y2="-37.46"/>
			<line class="st11" x1="255.81" y1="-42.2" x2="259.34" y2="-42.2"/>
			<line class="st11" x1="255.02" y1="-45.19" x2="258.08" y2="-46.96"/>
			<line class="st11" x1="252.85" y1="-47.39" x2="254.61" y2="-50.44"/>
		</g>
		<g class="st10">
			<line class="st11" x1="428.42" y1="57.73" x2="431.98" y2="61.33"/>
			<line class="st11" x1="432" y1="57.75" x2="428.4" y2="61.31"/>
		</g>
		<g class="st10">
			<line class="st11" x1="31.87" y1="181.3" x2="31.87" y2="177.77"/>
			<line class="st11" x1="28.88" y1="182.08" x2="27.11" y2="179.03"/>
			<line class="st11" x1="26.68" y1="184.26" x2="23.62" y2="182.5"/>
			<line class="st11" x1="25.87" y1="187.24" x2="22.34" y2="187.24"/>
			<line class="st11" x1="26.65" y1="190.23" x2="23.6" y2="192"/>
			<line class="st11" x1="28.83" y1="192.43" x2="27.06" y2="195.48"/>
			<line class="st11" x1="31.81" y1="193.24" x2="31.81" y2="196.77"/>
			<line class="st11" x1="34.8" y1="192.46" x2="36.56" y2="195.51"/>
			<line class="st11" x1="37" y1="190.28" x2="40.05" y2="192.04"/>
			<line class="st11" x1="37.81" y1="187.3" x2="41.34" y2="187.3"/>
			<line class="st11" x1="37.02" y1="184.31" x2="40.08" y2="182.54"/>
			<line class="st11" x1="34.85" y1="182.11" x2="36.61" y2="179.06"/>
		</g>
		<g class="st10">
			<line class="st11" x1="433.87" y1="116.3" x2="433.87" y2="112.77"/>
			<line class="st11" x1="430.88" y1="117.08" x2="429.11" y2="114.03"/>
			<line class="st11" x1="428.68" y1="119.26" x2="425.62" y2="117.5"/>
			<line class="st11" x1="427.87" y1="122.24" x2="424.34" y2="122.24"/>
			<line class="st11" x1="428.65" y1="125.23" x2="425.6" y2="127"/>
			<line class="st11" x1="430.83" y1="127.43" x2="429.06" y2="130.48"/>
			<line class="st11" x1="433.81" y1="128.24" x2="433.81" y2="131.77"/>
			<line class="st11" x1="436.8" y1="127.46" x2="438.56" y2="130.51"/>
			<line class="st11" x1="439" y1="125.28" x2="442.05" y2="127.04"/>
			<line class="st11" x1="439.81" y1="122.3" x2="443.34" y2="122.3"/>
			<line class="st11" x1="439.02" y1="119.31" x2="442.08" y2="117.54"/>
			<line class="st11" x1="436.85" y1="117.11" x2="438.61" y2="114.06"/>
		</g>
		<g class="st10">
			<line class="st11" x1="254.51" y1="195.7" x2="258.08" y2="199.3"/>
			<line class="st11" x1="258.1" y1="195.72" x2="254.5" y2="199.28"/>
		</g>
		<g class="st10">
			<line class="st11" x1="-15.07" y1="-41.82" x2="-11.5" y2="-38.22"/>
			<line class="st11" x1="-11.49" y1="-41.8" x2="-15.08" y2="-38.24"/>
		</g>
		<g class="st10">
			<line class="st11" x1="136.01" y1="-12.3" x2="139.58" y2="-8.7"/>
			<line class="st11" x1="139.6" y1="-12.28" x2="136" y2="-8.72"/>
		</g>
	</g>
	<line class="st6" x1="179" y1="118.56" x2="179.04" y2="94.73"/>
</g>
</svg>
